<?xml version="1.0" standalone="no"?>
<!DOCTYPE svg PUBLIC "-//W3C//DTD SVG 20010904//EN"
 "http://www.w3.org/TR/2001/REC-SVG-20010904/DTD/svg10.dtd">
<svg version="1.0" xmlns="http://www.w3.org/2000/svg"
 width="473.000000pt" height="512.000000pt" viewBox="0 0 473.000000 512.000000"
 preserveAspectRatio="xMidYMid meet">
<metadata>
Created by potrace 1.16, written by Peter Selinger 2001-2019
</metadata>
<g transform="translate(0.000000,512.000000) scale(0.100000,-0.100000)"
fill="#000000" stroke="none">
<path d="M1425 5072 c-44 -26 -79 -51 -78 -57 1 -5 -8 -15 -20 -22 -28 -15
-40 -16 -31 -2 4 8 0 7 -15 -1 -12 -6 -19 -15 -16 -19 2 -5 -15 -16 -38 -25
-58 -22 -71 -20 -22 3 22 11 37 20 33 20 -12 1 -118 -47 -118 -54 0 -3 9 -1
19 5 34 18 37 11 6 -14 -17 -14 -33 -20 -36 -14 -4 5 -9 2 -12 -7 -4 -9 -3
-13 3 -10 15 9 12 -8 -5 -31 -11 -14 -14 -49 -15 -140 0 -94 -3 -124 -16 -140
-13 -16 -15 -16 -10 -1 8 26 2 21 -34 -30 -19 -25 -30 -44 -24 -41 5 4 10 -58
11 -156 1 -88 8 -206 16 -261 12 -76 13 -102 4 -108 -7 -4 -48 -6 -92 -3 -50
3 -69 2 -50 -4 43 -11 123 -12 145 0 15 8 21 3 40 -31 l21 -41 -20 -62 c-11
-33 -23 -91 -27 -128 -4 -38 -9 -68 -12 -68 -24 0 -72 26 -67 37 3 10 -6 13
-38 12 -23 -1 -55 2 -72 6 -16 4 -37 7 -45 7 -25 -1 -70 -21 -70 -31 0 -6 -13
-6 -35 0 -19 5 -81 8 -139 6 -58 -2 -109 -1 -114 2 -6 3 -13 24 -17 46 -4 22
-12 46 -18 53 -6 8 -6 12 3 12 7 0 10 8 7 20 -3 11 -1 23 4 26 5 3 9 12 9 20
0 15 9 29 45 66 40 41 84 52 230 58 l140 6 -128 2 c-71 1 -137 6 -147 12 -21
11 -99 -18 -140 -54 l-25 -21 20 24 c11 13 45 34 75 48 44 19 60 22 80 13 24
-10 24 -9 6 5 -25 19 -24 19 -87 -9 -32 -14 -73 -44 -101 -74 -26 -28 -55 -52
-65 -55 -16 -4 -16 -5 1 -6 11 0 32 14 47 32 16 17 28 28 28 22 0 -5 -11 -22
-24 -37 -19 -22 -38 -30 -87 -37 -35 -5 -85 -17 -113 -25 -60 -19 -58 -19 -49
-3 4 6 -23 -17 -59 -52 -37 -36 -64 -67 -62 -70 3 -2 -2 -12 -11 -22 -10 -11
-12 -19 -5 -24 6 -3 11 -11 11 -16 0 -6 -5 -7 -11 -3 -8 4 -8 0 0 -15 14 -25
23 -28 14 -3 -4 13 -3 14 6 6 7 -6 14 -20 15 -30 2 -14 12 -19 37 -21 l34 -1
-35 8 c-28 6 -30 8 -10 9 14 1 36 4 50 7 20 5 22 4 10 -6 -13 -10 -13 -11 0
-7 8 2 14 11 12 19 -1 8 7 23 18 33 21 19 25 15 12 -13 -5 -9 -6 -27 -3 -39 5
-19 12 -14 63 44 l57 65 -22 34 c-21 32 -25 34 -62 28 -22 -3 -52 -13 -67 -22
-15 -9 -31 -13 -35 -8 -8 8 9 41 23 42 24 2 45 17 34 24 -7 4 9 12 36 19 45
11 49 11 64 -9 17 -22 30 -18 30 11 0 20 19 29 61 29 33 0 32 0 20 -32 -5 -13
-5 -44 -1 -68 7 -40 6 -46 -19 -69 -62 -59 -95 -86 -103 -86 -4 0 -17 -15 -28
-32 -11 -18 -24 -33 -30 -33 -5 0 -10 -6 -10 -13 0 -8 -12 -19 -27 -26 -20 -9
-23 -15 -14 -24 7 -7 15 -12 19 -13 4 0 14 -4 24 -8 9 -4 31 -6 48 -4 28 3 36
11 59 55 25 49 29 53 78 63 29 6 55 15 58 20 3 5 20 6 38 4 17 -3 90 2 160 10
71 9 150 14 175 11 26 -3 70 -8 97 -10 28 -3 70 -8 94 -11 l43 -6 -6 -48 c-8
-64 24 -268 67 -430 39 -144 51 -170 76 -170 27 0 33 -45 16 -117 -58 -246
-65 -538 -15 -605 26 -36 25 -46 -2 -22 l-23 19 19 -22 c10 -13 22 -21 26 -18
4 2 17 -9 28 -25 25 -33 28 -45 10 -34 -7 4 -2 -5 11 -19 26 -28 42 -38 21
-12 -7 8 -8 15 -3 15 11 0 41 -30 43 -45 4 -20 27 -45 36 -37 4 4 3 0 -4 -9
-10 -14 -9 -27 8 -70 11 -30 21 -70 21 -89 l2 -35 6 35 c5 31 9 34 45 38 35 3
44 -1 89 -45 31 -30 45 -38 35 -22 l-16 26 51 1 c29 0 75 4 104 7 46 6 53 4
63 -14 6 -12 21 -21 33 -21 50 0 62 -10 61 -45 -1 -18 -5 -38 -9 -44 -4 -8 5
-10 32 -7 21 3 64 8 96 12 32 3 56 8 53 11 -13 13 17 41 56 52 65 18 130 11
143 -16 11 -22 12 -22 93 23 84 45 98 49 120 36 10 -7 10 -15 2 -36 -16 -44 4
-101 56 -154 35 -37 44 -54 44 -82 0 -53 -57 -102 -153 -134 -10 -3 -16 -10
-13 -15 3 -5 -2 -7 -13 -4 -16 4 -93 -21 -143 -48 -12 -6 -22 -3 -34 8 -12 12
-20 14 -33 6 -9 -6 -25 -7 -39 -2 -13 5 -22 4 -22 -1 0 -5 -25 -9 -55 -7 -36
1 -55 6 -55 15 0 22 -20 13 -32 -16 -11 -26 -12 -26 -15 -4 -3 12 -8 22 -13
22 -5 0 -15 3 -23 6 -12 4 -17 -3 -20 -28 -4 -31 -5 -31 -12 -10 -6 18 -10 20
-16 10 -8 -11 -11 -11 -18 1 -5 7 -14 10 -20 7 -6 -4 -11 -2 -11 5 0 7 -11 -1
-25 -17 -14 -16 -25 -23 -25 -16 0 6 -7 12 -15 12 -8 0 -15 -4 -15 -10 0 -5
-7 -7 -15 -4 -9 4 -15 0 -15 -10 0 -10 -6 -13 -15 -10 -8 4 -15 15 -15 25 0
10 -9 24 -20 31 -11 7 -20 20 -20 28 0 8 -14 31 -30 50 -16 19 -30 38 -30 43
0 4 -4 7 -10 7 -5 0 -19 9 -30 20 -11 11 -27 20 -35 20 -8 0 -15 7 -15 15 0 9
-7 18 -15 21 -8 4 -15 13 -15 21 0 9 -6 13 -14 10 -22 -9 -36 32 -39 118 -2
58 -4 46 -5 -45 l-2 -124 62 -63 c34 -34 59 -65 56 -68 -2 -3 -32 26 -66 64
l-61 68 -4 84 -3 84 -2 -85 -1 -85 118 -129 118 -129 18 -118 c10 -66 20 -117
23 -114 2 2 -4 56 -14 120 l-18 116 -55 62 -55 62 61 -58 60 -58 13 -87 c19
-133 57 -322 73 -367 17 -48 11 -101 -14 -134 -11 -13 -19 -20 -19 -15 0 5 7
18 15 28 21 28 19 70 -9 183 -14 54 -27 107 -29 118 l-5 20 -1 -20 c0 -11 10
-64 24 -118 29 -113 31 -154 9 -185 -14 -21 -11 -48 5 -38 4 3 17 -7 28 -23
24 -32 21 -40 -44 -117 -23 -28 -43 -56 -43 -62 0 -6 -8 -16 -17 -21 -10 -5
-33 -38 -52 -73 -34 -63 -34 -66 -22 -111 14 -50 19 -53 103 -67 52 -8 54 -8
101 32 27 22 50 38 53 35 2 -2 -19 -22 -48 -44 -47 -36 -58 -39 -103 -37 l-50
3 50 -8 c48 -8 52 -7 104 33 30 22 72 64 94 91 21 28 49 55 61 62 11 7 16 12
11 13 -19 0 -53 -29 -75 -66 -12 -19 -25 -33 -27 -30 -9 9 58 86 88 101 34 18
43 19 33 4 -14 -24 32 11 71 52 22 24 32 37 23 30 -19 -15 -25 -2 -7 16 7 7 6
36 -6 99 -21 112 -21 100 6 161 22 52 23 54 6 101 -17 45 -16 52 4 162 19 106
20 157 3 216 -5 20 -1 22 39 25 l45 4 6 -135 c3 -74 11 -203 18 -287 10 -137
10 -158 -6 -210 -17 -57 -17 -59 4 -116 19 -50 20 -63 9 -90 -16 -43 -178
-257 -192 -254 -6 1 -12 -7 -14 -18 l-3 -20 10 20 c8 16 9 12 5 -17 -4 -22 0
-51 9 -73 8 -19 14 -39 13 -43 -3 -11 256 -12 273 -1 11 7 8 8 -10 4 -16 -3
-10 3 16 16 23 12 48 33 57 48 19 31 72 92 61 71 -4 -8 -20 -31 -36 -51 -15
-20 -28 -40 -28 -44 0 -4 8 3 18 16 58 76 76 102 64 95 -18 -11 -16 -4 19 65
31 61 32 63 25 167 -6 99 -5 107 15 128 19 20 21 32 17 86 -4 48 0 74 15 108
10 25 36 95 57 156 35 105 38 118 33 200 -4 74 -30 193 -59 268 -3 8 24 36 68
71 101 81 103 82 95 69 -4 -7 -38 -36 -77 -65 -38 -29 -67 -55 -65 -57 5 -5
151 113 161 130 5 7 3 8 -6 3 -8 -5 -11 -3 -8 6 3 8 10 14 16 14 22 0 93 106
112 168 16 50 19 88 18 197 l-2 135 -6 -150 c-4 -93 -13 -167 -22 -196 -15
-43 -88 -152 -96 -144 -3 2 10 22 28 45 18 22 42 64 53 93 20 49 22 76 28 467
6 392 13 525 28 516 4 -3 4 14 2 37 l-5 42 -6 -40 c-9 -58 -18 -25 -23 85 -3
52 -8 103 -12 113 -5 13 -2 17 11 16 11 0 14 -3 8 -5 -8 -4 -9 -17 -2 -47 13
-59 16 -56 12 10 -2 43 1 65 16 89 18 28 20 50 20 196 l0 164 33 31 c28 27 46
33 135 48 93 15 109 15 170 1 37 -8 101 -18 142 -21 44 -4 141 -27 235 -55
176 -53 233 -64 255 -50 18 11 23 3 118 -169 41 -75 75 -137 76 -138 1 -1 25
5 54 14 54 18 52 14 67 106 5 28 4 30 -7 15 -7 -9 -21 -31 -32 -50 l-18 -33
-54 60 c-30 33 -63 79 -74 102 -12 23 -31 48 -44 57 -14 8 -26 29 -30 49 -8
44 -30 65 -44 42 -7 -14 -14 -9 -40 31 -32 47 -41 70 -23 60 5 -3 15 1 22 10
10 12 10 30 2 85 -11 67 -10 72 16 121 31 61 54 70 144 57 34 -5 68 -9 76 -9
9 0 11 -7 8 -21 -5 -20 -3 -21 31 -15 79 15 108 14 157 -6 27 -11 60 -24 73
-29 12 -5 26 -17 29 -26 4 -10 17 -26 30 -36 13 -10 23 -27 23 -38 0 -12 7
-19 19 -19 30 0 52 -37 40 -68 -5 -13 -7 -33 -3 -44 3 -12 -1 -27 -12 -39 -21
-23 -34 -24 -34 -4 0 30 -92 104 -158 126 l-62 21 -70 -43 c-64 -40 -70 -47
-79 -88 -9 -45 -6 -70 10 -72 20 -3 25 -5 39 -13 12 -7 13 -6 3 4 -10 10 -9
19 4 41 9 16 24 30 32 32 14 4 13 5 -1 6 -9 0 -26 -15 -38 -34 -29 -48 -37
-44 -9 4 24 44 40 51 114 51 77 0 118 -16 152 -58 36 -45 74 -117 66 -125 -6
-7 41 -27 60 -26 7 0 -4 7 -23 14 -43 16 -29 19 23 4 22 -6 46 -7 55 -3 10 4
22 6 27 5 6 -2 40 -9 76 -16 l67 -12 37 49 c33 42 36 52 27 72 -6 13 -8 27 -5
30 3 3 7 20 8 38 2 25 -6 43 -36 79 -34 40 -37 48 -24 59 32 27 18 55 -55 104
-38 27 -68 52 -65 56 8 12 -62 63 -77 57 -9 -4 -9 -6 2 -6 17 -2 70 -40 56
-41 -5 0 -17 7 -26 15 -11 10 -64 21 -151 31 -74 8 -181 23 -238 33 l-103 17
-29 67 c-15 37 -27 70 -26 74 4 11 -107 44 -123 36 -8 -3 -64 -10 -125 -13
l-110 -7 96 -1 c53 -1 109 3 125 8 23 8 41 6 84 -9 30 -11 50 -20 44 -20 -6
-1 -31 6 -54 14 -38 13 -48 13 -96 -1 -30 -8 -52 -19 -49 -23 2 -5 -4 -16 -15
-26 -11 -10 -20 -26 -20 -37 0 -10 -4 -18 -9 -18 -5 0 -8 -8 -7 -17 2 -10 -6
-30 -16 -44 -10 -14 -20 -35 -21 -47 -1 -12 -5 -22 -9 -22 -5 0 -4 -9 1 -19 8
-14 6 -28 -6 -51 -13 -27 -13 -34 -2 -41 11 -7 11 -9 -3 -9 -15 0 -16 -7 -11
-50 5 -42 3 -50 -11 -50 -9 0 -16 -4 -16 -10 0 -5 -11 -10 -25 -10 -16 0 -23
4 -19 14 4 10 -11 13 -73 11 -46 -1 -95 4 -118 13 -22 7 -74 15 -115 18 -57 3
-78 8 -88 21 -7 10 -19 16 -25 14 -7 -2 -32 -3 -57 -3 -25 1 -67 -5 -95 -12
-30 -8 -62 -10 -83 -5 -18 4 -47 3 -63 -1 -28 -8 -30 -7 -59 49 -16 32 -26 61
-23 65 4 3 1 6 -6 6 -8 0 -10 -7 -6 -20 5 -15 1 -21 -18 -25 -15 -4 -28 -18
-35 -39 -7 -18 -26 -42 -43 -55 -32 -24 -65 -21 -55 4 4 11 -2 15 -20 15 l-26
0 31 29 c36 34 41 56 9 46 -16 -6 -20 -4 -15 8 3 9 9 33 12 54 4 21 10 47 15
58 5 11 16 41 24 67 30 94 57 137 105 171 89 65 74 65 248 -9 l157 -66 35 18
c20 10 70 21 111 25 l75 7 -80 -4 c-44 -2 -96 -5 -116 -5 -46 -2 -289 80 -289
97 0 7 -5 16 -12 20 -8 5 -9 2 -5 -10 4 -10 3 -15 -3 -11 -6 3 -10 12 -10 20
0 22 -84 29 -175 16 l-81 -13 -110 64 c-98 57 -224 108 -266 108 -10 0 -26 21
-41 54 -35 76 -42 100 -27 91 7 -5 -2 14 -21 40 -19 27 -42 63 -51 79 -9 17
-17 26 -18 20 0 -7 15 -34 33 -60 42 -62 49 -74 44 -74 -11 0 -80 106 -93 144
-8 22 -27 90 -41 149 -24 105 -24 109 -6 123 34 27 88 45 152 51 54 5 71 11
99 38 33 30 34 33 27 82 -6 45 -11 55 -46 77 -40 27 -121 37 -134 16 -3 -5
-12 -10 -18 -10 -7 0 -3 7 7 15 35 26 107 19 153 -15 40 -29 53 -58 53 -115 0
-34 -72 -95 -113 -95 -50 0 -150 -29 -170 -49 -17 -17 -17 -21 -1 -85 9 -37
19 -65 21 -62 2 2 -3 32 -12 66 -14 52 -14 65 -3 76 16 16 121 44 165 44 41 0
123 70 123 105 0 59 -14 87 -58 121 -37 28 -54 34 -92 34 -33 0 -55 -6 -71
-20 -13 -10 -20 -19 -15 -20 12 0 -14 -30 -26 -30 -6 0 -4 8 3 18 7 9 -1 4
-19 -12 -18 -17 -32 -35 -32 -40 0 -6 -7 -24 -15 -40 -13 -24 -13 -27 -1 -17
8 7 18 25 21 41 3 16 13 34 21 41 12 10 12 7 -1 -17 -8 -16 -15 -34 -15 -40 0
-12 -48 -60 -53 -53 -11 13 -67 110 -67 115 0 3 6 2 13 -1 6 -4 -19 23 -57 60
-67 66 -131 105 -171 104 -11 0 3 -8 31 -17 51 -18 140 -80 129 -90 -3 -3 -20
8 -38 24 -45 42 -99 64 -172 71 -62 6 -66 4 -162 -47 -115 -62 -114 -52 2 14
44 25 76 46 70 46 -5 0 -46 -21 -90 -48z m-61 -87 c-5 -12 3 -15 36 -15 63 0
143 -27 180 -60 19 -17 37 -30 42 -30 4 0 8 -7 8 -15 0 -17 -31 -20 -58 -6 -9
5 -39 16 -65 24 -44 13 -53 13 -109 -4 -74 -23 -85 -31 -93 -70 -5 -20 -12
-29 -23 -27 -10 1 -22 -1 -28 -5 -7 -4 -19 5 -29 21 -21 31 -40 45 -75 52 -36
7 -31 32 10 52 27 14 197 93 207 97 1 1 0 -6 -3 -14z m288 -213 c38 -60 44
-67 61 -80 26 -20 22 -74 -14 -182 -17 -52 -35 -108 -39 -123 -8 -25 -1 -105
15 -174 4 -16 1 -23 -10 -23 -12 0 -14 -12 -11 -70 3 -41 1 -72 -5 -76 -6 -3
-8 -12 -5 -20 3 -7 1 -16 -5 -20 -5 -3 -9 -15 -7 -27 2 -15 -4 -22 -22 -27
-17 -4 -33 -21 -50 -53 -14 -27 -32 -47 -42 -47 -9 0 -19 -6 -21 -12 -3 -8 -6
-5 -6 5 -1 15 -11 10 -51 -26 -27 -24 -62 -47 -77 -50 -33 -6 -83 2 -83 13 0
5 -13 11 -30 15 -21 5 -35 2 -46 -10 -28 -27 -48 -14 -58 38 -5 26 -7 50 -4
53 3 3 25 0 49 -6 65 -18 189 3 256 43 50 30 51 31 32 48 -10 9 -19 21 -19 28
0 6 -5 11 -11 11 -6 0 -9 9 -6 20 3 13 0 20 -9 20 -8 0 -14 5 -14 10 0 6 -18
10 -39 10 -22 0 -43 5 -46 10 -3 6 4 10 17 10 13 0 29 5 36 12 7 7 12 8 12 4
0 -5 6 -4 13 2 6 5 31 13 55 17 49 8 56 -5 16 -31 -32 -21 -29 -56 6 -64 21
-5 25 -11 22 -39 -2 -22 0 -31 7 -26 6 3 11 15 11 26 0 11 7 36 15 56 14 33
14 38 -1 61 -12 18 -16 50 -16 128 -1 114 1 107 -56 172 -78 89 -122 143 -122
150 0 4 33 4 74 -2 80 -10 122 -3 96 15 -12 9 -11 10 4 5 11 -4 43 6 81 25
l62 32 -13 36 c-7 20 -13 47 -14 61 0 14 -7 36 -15 50 -8 14 -14 28 -15 32 0
15 26 -3 42 -30z m-346 -103 c8 -17 13 -41 10 -54 -4 -14 -1 -25 7 -28 9 -4 8
-8 -3 -16 -10 -7 -17 -6 -22 2 -4 6 -10 8 -14 4 -13 -13 17 -54 52 -70 35 -17
44 -40 22 -54 -19 -11 -90 -13 -110 -2 -13 7 -25 5 -40 -6 -32 -21 -81 -19
-113 7 l-28 22 5 -51 c3 -33 0 -56 -9 -69 -15 -21 -18 -80 -3 -89 5 -3 12 7
15 22 4 15 11 38 17 50 l10 21 50 -23 c27 -12 51 -25 54 -28 3 -2 22 4 43 14
21 10 60 23 87 30 27 6 56 20 66 30 9 11 20 19 25 18 14 -1 85 -92 76 -98 -4
-3 -8 -25 -8 -48 -1 -77 -9 -80 -207 -76 -95 1 -181 3 -191 3 -11 0 -15 4 -11
12 4 6 3 8 -3 5 -6 -4 -8 -18 -5 -32 2 -15 -2 -38 -9 -52 -12 -22 -12 -27 0
-31 9 -3 10 -6 2 -11 -16 -10 11 -111 39 -150 22 -32 25 -41 11 -41 -15 0 -58
82 -70 135 -17 76 -33 247 -37 377 -3 106 -1 119 18 140 l20 23 -16 -30 c-15
-26 -12 -25 19 10 20 22 44 40 53 40 9 1 25 2 35 3 10 1 24 16 31 33 13 31 34
25 22 -6 -3 -8 0 -15 7 -15 15 0 42 43 51 83 9 36 32 34 52 -4z m784 -784 c0
-9 7 -18 16 -22 12 -4 14 -14 9 -39 -3 -19 -2 -34 4 -34 5 0 14 -14 20 -30 9
-28 8 -31 -20 -45 -16 -9 -27 -20 -24 -25 4 -6 0 -10 -9 -10 -8 0 -16 5 -18
11 -2 5 -24 -9 -50 -33 -45 -42 -46 -44 -46 -108 -1 -59 -4 -67 -29 -87 -20
-17 -30 -19 -36 -10 -6 8 -7 7 -4 -4 10 -31 -194 -175 -230 -162 -11 4 -14 15
-10 40 3 18 2 31 -2 28 -5 -2 -11 -25 -14 -51 -2 -25 -9 -50 -13 -54 -5 -5
-39 -12 -76 -16 -67 -7 -68 -6 -67 17 1 17 3 19 6 7 7 -29 30 -21 29 10 0 15
3 38 7 52 7 23 7 23 -6 8 -25 -31 -26 -19 -3 39 21 55 46 81 46 49 0 -9 -4
-16 -10 -16 -5 0 -10 -10 -10 -22 1 -20 2 -21 13 -8 7 8 23 24 36 35 l24 20
-6 -32 c-4 -18 -2 -33 3 -33 5 0 13 19 17 43 8 40 10 42 45 43 55 2 65 9 73
54 6 34 9 39 21 29 11 -9 14 -8 14 1 0 8 3 11 6 8 3 -4 22 11 42 32 109 114
131 145 148 199 6 20 15 35 21 34 6 -1 9 7 5 19 -3 14 -1 19 6 14 8 -5 10 -1
5 10 -5 13 -2 16 9 12 10 -4 20 2 28 18 15 27 30 32 30 9z m-743 -279 c-1 -34
4 -61 13 -71 12 -15 12 -19 -3 -30 -9 -7 -17 -20 -17 -29 0 -9 -5 -16 -11 -16
-6 0 -8 -8 -5 -18 3 -9 -2 -39 -12 -65 l-18 -47 -22 23 c-28 29 -28 71 -2 137
11 28 18 55 15 60 -8 13 36 110 51 110 9 0 12 -16 11 -54z m33 -163 c1 -16 2
-16 15 1 20 26 31 12 17 -19 -7 -14 -12 -33 -12 -42 0 -12 3 -13 15 -3 8 6 14
15 13 18 0 4 0 13 1 21 2 22 30 -19 31 -43 0 -31 14 -8 15 24 0 17 5 29 10 27
6 -1 9 -13 8 -26 -1 -14 2 -30 7 -36 6 -8 5 -18 -5 -31 -14 -19 -14 -19 -15 1
l-1 20 -9 -20 c-5 -11 -11 -33 -15 -48 -4 -21 -10 -27 -22 -23 -14 6 -14 4 -2
-10 12 -15 11 -16 -11 -10 -57 16 -81 29 -76 41 24 62 29 96 16 108 -10 9 -11
9 -6 0 4 -7 0 -25 -8 -40 -20 -37 -20 -14 0 53 15 52 34 72 34 37z m171 -415
c21 -16 34 -39 46 -78 8 -30 31 -77 51 -103 29 -41 39 -48 59 -42 13 3 28 3
34 -1 6 -3 52 -7 103 -9 97 -2 116 -7 116 -29 0 -16 75 -46 114 -46 16 0 50
-8 76 -17 39 -14 53 -15 72 -6 41 21 69 25 83 13 8 -6 18 -9 23 -6 5 3 18 -1
28 -9 24 -18 51 -19 57 -2 3 8 12 5 28 -10 19 -18 20 -24 9 -38 -7 -8 -24 -21
-39 -28 -35 -16 -38 -54 -8 -98 44 -64 40 -96 -13 -122 -15 -8 -31 -30 -41
-57 -9 -24 -27 -51 -40 -59 -40 -25 -80 -64 -105 -103 -16 -25 -44 -47 -95
-72 -39 -20 -80 -36 -90 -36 -10 0 -21 -5 -24 -10 -4 -6 -14 -10 -23 -9 -10 2
-33 -7 -52 -19 -41 -26 -110 -30 -110 -7 0 12 -8 14 -42 9 -55 -8 -108 -30
-108 -43 0 -16 -16 -13 -33 4 -11 11 -17 11 -19 3 -3 -8 -29 -11 -82 -10 -85
3 -153 29 -190 73 -12 15 -21 19 -24 11 -5 -16 -42 3 -42 22 0 7 -13 37 -30
67 -16 30 -37 78 -46 108 -10 34 -18 50 -23 42 -9 -14 -21 58 -21 128 0 55 27
262 39 309 18 61 46 112 61 109 8 -2 28 3 43 10 16 8 35 12 43 9 9 -3 14 1 14
12 0 9 13 43 29 74 34 66 41 59 41 -40 0 -70 7 -112 19 -112 4 0 16 6 26 14
17 13 18 19 6 99 -7 47 -10 95 -6 106 9 28 47 27 86 -1z"/>
</g>
</svg>
